<?xml version="1.0" encoding="UTF-8"?>
<svg version="1.1"
     xmlns="http://www.w3.org/2000/svg"
     width="2000"
     height="2000">
  <path d="M0 0 C2.0850972 3.1276458 2.35599976 4.40009477 2.73022461 8.0300293 C2.84061066 9.06332367 2.9509967 10.09661804 3.06472778 11.16122437 C3.23184769 12.85065659 3.23184769 12.85065659 3.40234375 14.57421875 C3.5858992 16.33736923 3.5858992 16.33736923 3.77316284 18.13613892 C4.17058854 21.98570531 4.55476253 25.83644744 4.9375 29.6875 C5.13861779 31.67235219 5.33973634 33.65720432 5.54113674 35.64202785 C7.14802025 51.5168613 8.63159561 67.39975838 9.8125 83.3125 C9.86953094 84.07702484 9.92656189 84.84154968 9.98532104 85.62924194 C10.30812785 90.02129114 10.60131837 94.41433221 10.86639404 98.8102417 C10.95438756 100.25242698 11.04628935 101.69437995 11.14239502 103.13604736 C12.45861455 123.13843429 12.24576605 143.21427078 12.25 163.25 C12.25044186 164.20797234 12.25088371 165.16594467 12.25133896 166.15294647 C12.25844861 195.58466162 11.8612196 224.84188697 9.25 254.17730713 C8.99104093 257.10115485 8.74275641 260.02577438 8.49609375 262.95068359 C4.8515244 305.77111304 -0.49675821 348.43195669 -5.72291565 391.08250427 C-9.5859524 422.61060446 -13.37378144 454.13264133 -16.4375 485.75 C-16.55724182 486.97378357 -16.67698364 488.19756714 -16.800354 489.45843506 C-19.35331268 515.73678834 -20.9681426 542.06351221 -22.125 568.4375 C-22.21196595 570.36785089 -22.29920586 572.29818945 -22.38671875 574.22851562 C-22.59425946 578.8188766 -22.79825019 583.40938102 -23 588 C-22.39986084 587.98255234 -21.79972168 587.96510468 -21.18139648 587.9471283 C-10.1088676 587.78142158 0.90071998 588.71637271 11.9375 589.50390625 C14.22319842 589.66418253 16.50891461 589.82420561 18.79464722 589.98399353 C24.92360602 590.4140575 31.05209632 590.85045816 37.18044281 591.28915405 C41.0169044 591.56370976 44.85344691 591.83711199 48.69000244 592.11035156 C136.20048243 598.35182358 223.56924238 605.91541738 310.78421402 615.4605484 C313.39817915 615.74571042 316.01244232 616.02797617 318.62680054 616.30950928 C367.24689261 621.55949585 367.24689261 621.55949585 386 629 C386.33 629.66 386.66 630.32 387 631 C385.500823 631.31642465 384.00059887 631.62788849 382.5 631.9375 C381.6646875 632.11152344 380.829375 632.28554688 379.96875 632.46484375 C372.21911102 633.86181815 364.66190658 634.20108998 356.80078125 634.31640625 C355.55626694 634.33727798 354.31175262 634.35814972 353.02952576 634.37965393 C348.79062161 634.44874175 344.55158546 634.50585017 340.3125 634.5625 C338.79992664 634.58354854 337.2873534 634.60460579 335.77478027 634.62567139 C259.19939695 635.66964329 182.56851319 635.48864993 106 634 C105.08294029 633.98225021 104.16588058 633.96450043 103.22103119 633.94621277 C61.14321575 633.13053963 19.06675006 632.27419131 -23 631 C-22.98632889 631.75090408 -22.97265778 632.50180817 -22.95857239 633.27546692 C-21.51371453 717.02777228 -33.31629106 802.0189486 -85.10536957 1163.19316053 C-85.43502475 1165.17263693 -85.76447969 1167.15214666 -86.09393311 1169.13165665 C-90.86477036 1197.79052763 -95.6445534 1226.443557 -101 1255 C-100.28987762 1255.04345551 -99.57975525 1255.08691101 -98.84811401 1255.13168335 C-88.61448287 1255.83248802 -78.48718292 1257.14292002 -68.3203125 1258.4765625 C-66.4028676 1258.72547712 -64.48538102 1258.9740709 -62.56785583 1259.22236633 C-57.470915 1259.88314044 -52.37449591 1260.54785534 -47.2781868 1261.2134819 C-38.83021271 1262.31601545 -30.38137657 1263.41194172 -21.93270302 1264.50909996 C-18.79169884 1264.91711886 -15.65075476 1265.32559831 -12.5098114 1265.73408508 C0.34495003 1267.40452907 13.20336951 1269.04097572 26.06684875 1270.64280701 C72.68285717 1276.44893606 118.32767857 1285.57893877 164.2265625 1295.49609375 C201.92900325 1303.74583643 201.92900325 1303.74583643 240 1310 C241.88416533 1310.27699876 243.76828219 1310.55432756 245.65234375 1310.83203125 C247.30944846 1311.05799297 248.96696991 1311.28093165 250.625 1311.5 C251.32520264 1311.60207764 252.02540527 1311.70415527 252.74682617 1311.80932617 C257.18113758 1312.32260633 259.40508985 1311.57227428 263 1309 C274.3509176 1304.99379379 285.88296923 1305.39978247 297.03125 1309.96875 C304.27680122 1313.76403874 309.59480152 1319.19196599 314 1326 C314.51433594 1326.76054688 315.02867188 1327.52109375 315.55859375 1328.3046875 C321.3040363 1339.04819795 321.49738092 1354.26670064 318.5 1365.75 C315.59130261 1374.23028675 310.0447404 1380.54309394 302.2421875 1384.9453125 C252.98256791 1408.1162137 180.91584217 1381.76981133 131.9140625 1368.0234375 C51.86498325 1345.61899283 -31.88832922 1335.86710016 -114 1324 C-114.1126973 1324.76862869 -114.22539459 1325.53725739 -114.34150696 1326.32917786 C-115.61150448 1334.80563967 -117.11643104 1343.21963373 -118.73046875 1351.63671875 C-119.00017637 1353.05078566 -119.26977033 1354.46487425 -119.53926086 1355.87898254 C-120.41785714 1360.48262112 -121.30243032 1365.08510235 -122.1875 1369.6875 C-122.49756044 1371.30192022 -122.80761902 1372.91634079 -123.11767578 1374.53076172 C-134.32479571 1432.84278003 -146.20018712 1491.01620971 -159 1549 C-159.2683667 1550.21655273 -159.5367334 1551.43310547 -159.81323242 1552.68652344 C-168.49289498 1591.97091397 -178.02279703 1631.02753821 -188 1670 C-188.33112793 1671.29872543 -188.33112793 1671.29872543 -188.66894531 1672.62368774 C-189.21263178 1674.74929231 -189.76255498 1676.87311893 -190.31640625 1678.99609375 C-190.59299072 1680.06013428 -190.8695752 1681.1241748 -191.15454102 1682.22045898 C-195.36875236 1696.07515033 -204.70690762 1706.76146595 -217.25 1713.83203125 C-231.00948531 1720.5008384 -245.31654126 1722.1970895 -260.18359375 1717.98046875 C-276.30572459 1712.36791003 -286.45068994 1702.19640912 -294 1687 C-295.25084783 1683.70853547 -296.22649756 1680.43316085 -297 1677 C-297.18175781 1676.20078125 -297.36351562 1675.4015625 -297.55078125 1674.578125 C-300.71933808 1656.39336408 -292.37611759 1637.17606109 -287.34939575 1619.95907593 C-264.69735382 1542.24921037 -244.55433777 1463.78577774 -216.19348812 1342.54140472 C-215.74001194 1340.5528526 -215.28575666 1338.56447981 -214.8313446 1336.57614136 C-214.28304302 1334.17447491 -213.7367326 1331.7723525 -213.19294739 1329.36965942 C-211.63149243 1322.52844237 -209.90542017 1315.7536208 -208 1309 C-209.18746826 1308.8443457 -210.37493652 1308.68869141 -211.59838867 1308.52832031 C-226.93891748 1306.45871119 -242.11409802 1303.67132492 -257.3125 1300.75 C-258.6721697 1300.48956931 -260.03185004 1300.22919421 -261.39154053 1299.96887207 C-318.88553157 1288.94782423 -376.07207837 1276.64392685 -433 1263 C-433.68247047 1262.83646278 -434.36494095 1262.67292557 -435.06809235 1262.50443268 C-516.98393305 1242.86306074 -598.22243755 1220.67176778 -687.69140625 1196.15234375 C-738.76256083 1182.15072924 -789.86580866 1170.10903654 -842.0927887 1161.19104004 C-848.06980354 1160.17015238 -854.03586829 1159.09354954 -860 1158 C-860.10335159 1158.53017731 -860.20670319 1159.06035461 -860.31318665 1159.6065979 C-864.48150207 1180.89840925 -869.01475138 1202.11227688 -873.53847885 1223.33076859 C-874.19449001 1226.40778662 -874.85014991 1229.48487936 -875.50576782 1232.5619812 C-878.66277248 1247.37631105 -881.8286112 1262.18874316 -885 1277 C-885.21420593 1278.00055168 -885.42841187 1279.00110336 -885.64910889 1280.03197479 C-888.27530516 1292.29719748 -890.9097733 1304.56060406 -893.55679321 1316.8213501 C-894.29643241 1320.24763422 -895.03402747 1323.67434695 -895.7696228 1327.10150146 C-902.14215574 1356.77573811 -908.65896191 1386.49429367 -917.14672852 1415.64819336 C-917.81376976 1417.94186618 -918.4671731 1420.23911162 -919.11914062 1422.53710938 C-927.95741848 1453.41518334 -938.21759937 1483.87921288 -948.44589233 1514.31716919 C-958.70449061 1544.85114382 -968.86073034 1575.40093514 -978.22677612 1606.22294617 C-979.42663584 1610.16945203 -980.67636055 1614.09322109 -982 1618 C-982.33 1618 -982.66 1618 -983 1618 C-983.74798068 1611.75899955 -984.24708054 1605.56293601 -984.53515625 1599.28515625 C-984.59962196 1597.94148232 -984.59962196 1597.94148232 -984.66539001 1596.57066345 C-984.75495604 1594.68918287 -984.84311797 1592.80763497 -984.92993164 1590.92602539 C-985.06198938 1588.07352954 -985.19961551 1585.2213411 -985.33789062 1582.36914062 C-985.42481235 1580.52866154 -985.51141153 1578.68816718 -985.59765625 1576.84765625 C-985.65857201 1575.58937767 -985.65857201 1575.58937767 -985.72071838 1574.30567932 C-986.11128068 1565.70096844 -986.23734952 1557.20125662 -985.2578125 1548.6328125 C-985.17024689 1547.86486359 -985.08268127 1547.09691467 -984.99246216 1546.30569458 C-983.85806451 1537.04431085 -981.87690675 1527.98040195 -979.875 1518.875 C-979.44561108 1516.88839383 -979.01684203 1514.9016536 -978.58862305 1512.91479492 C-975.96066008 1500.76998114 -973.25636621 1488.64206086 -970.54795074 1476.51499176 C-970.02413542 1474.16922612 -969.50076567 1471.82336143 -968.97747803 1469.47747803 C-967.4234693 1462.51315183 -965.86721234 1455.54939578 -964.29572868 1448.58898926 C-957.44624338 1418.22815153 -951.25736675 1387.82510374 -946.875 1357 C-946.50556831 1354.45084011 -946.13550521 1351.90177167 -945.76489258 1349.3527832 C-943.44910132 1333.38116641 -941.20699917 1317.39896113 -938.95703125 1301.41796875 C-938.82492437 1300.47967602 -938.6928175 1299.54138329 -938.55670738 1298.57465744 C-938.1507907 1295.69138041 -937.74493713 1292.80809451 -937.33911133 1289.92480469 C-937.20345733 1288.96106493 -937.06780333 1287.99732517 -936.9280386 1287.00438118 C-936.23918249 1282.10982121 -935.55083404 1277.21519066 -934.8633728 1272.32043457 C-929.17619441 1231.83974987 -923.1518341 1191.4124216 -917 1151 C-932.37774744 1148.64167352 -947.75917312 1146.91880673 -963.25 1145.5 C-964.40993469 1145.39261505 -965.56986938 1145.2852301 -966.76495361 1145.17459106 C-988.49380187 1143.16653274 -1010.22173006 1141.37242485 -1032 1140 C-1033.17427551 1139.92565735 -1034.34855103 1139.8513147 -1035.55841064 1139.77471924 C-1096.91575502 1135.91196481 -1158.30142671 1133.68421069 -1219.75510311 1132.06206656 C-1222.25438416 1131.99608113 -1224.75366107 1131.92994055 -1227.25293732 1131.86377335 C-1243.21197633 1131.44155171 -1259.171079 1131.02254339 -1275.13081485 1130.62742656 C-1281.55073189 1130.4683784 -1287.97054267 1130.30542487 -1294.39029568 1130.13989025 C-1298.1349931 1130.04358743 -1301.87971279 1129.94938391 -1305.62460518 1129.86096001 C-1325.46053104 1129.3914055 -1345.21158565 1128.43155368 -1365 1127 C-1364 1125 -1364 1125 -1362.28637695 1124.33325195 C-1314.18631315 1111.88027676 -1264.52331235 1106.00056453 -1215 1103 C-1214.19550415 1102.95121704 -1213.3910083 1102.90243408 -1212.56213379 1102.85217285 C-1118.1545961 1097.21347359 -1023.35096196 1100.3112673 -929.125 1107.625 C-927.90463043 1107.71852249 -927.90463043 1107.71852249 -926.65960693 1107.81393433 C-924.40028225 1107.98856462 -922.14149518 1108.16883648 -919.8828125 1108.3515625 C-918.61840332 1108.45291504 -917.35399414 1108.55426758 -916.05126953 1108.65869141 C-913 1109 -913 1109 -910 1110 C-909.92260621 1108.91789938 -909.92260621 1108.91789938 -909.84364891 1107.81393814 C-909.26902423 1100.32338228 -908.35322785 1092.94016908 -907.22509766 1085.51464844 C-907.04732851 1084.32301338 -906.86955936 1083.13137833 -906.68640327 1081.90363312 C-906.20070488 1078.65201016 -905.71165918 1075.40091153 -905.22128582 1072.14999104 C-904.69872117 1068.6790507 -904.18096882 1065.20739296 -903.66290283 1061.73577881 C-902.89231272 1056.57438102 -902.12053572 1051.4131636 -901.34710407 1046.25219083 C-898.91913718 1030.05062474 -896.51155594 1013.84603233 -894.109375 997.640625 C-893.99637165 996.87842274 -893.88336829 996.11622047 -893.76694059 995.33092117 C-888.22221439 957.92571371 -882.92038332 920.49266835 -878 883 C-877.89607689 882.20944214 -877.79215378 881.41888428 -877.68508148 880.60437012 C-866.61908446 796.41779732 -857.36858346 712.12069196 -850 619 C-850.71419098 619.00752792 -851.42838196 619.01505585 -852.16421509 619.02281189 C-870.87193266 619.19140422 -889.47099566 618.71839679 -908.15197754 617.68490601 C-910.42916533 617.5595175 -912.70650369 617.43721727 -914.98388672 617.31542969 C-953.53976488 615.2413454 -992.04569192 612.36947864 -1030.55607796 609.59618473 C-1037.37587606 609.10508084 -1044.19571917 608.61460571 -1051.015625 608.125 C-1051.67780077 608.07745284 -1052.33997653 608.02990568 -1053.02221823 607.98091769 C-1074.92396003 606.40900358 -1096.82816158 604.9113036 -1118.74822998 603.61819458 C-1120.69727801 603.50311297 -1122.64624768 603.38670673 -1124.59521484 603.27026367 C-1147.52371032 601.90994342 -1170.43487473 600.9955378 -1193.40234375 600.75390625 C-1194.59526346 600.74124537 -1194.59526346 600.74124537 -1195.81228256 600.7283287 C-1203.19533674 600.65119853 -1210.57843132 600.58016252 -1217.96166992 600.52319336 C-1222.0583351 600.49117266 -1226.15482421 600.44990902 -1230.25134468 600.40299797 C-1231.78486545 600.38719931 -1233.31842556 600.37477872 -1234.8520031 600.36609077 C-1249.7979757 600.27987625 -1263.13325619 599.71021201 -1274.875 589.5 C-1275.57625 588.675 -1276.2775 587.85 -1277 587 C-1278.2684375 585.6078125 -1278.2684375 585.6078125 -1279.5625 584.1875 C-1286.57775517 575.53976406 -1289.03883513 564.98197136 -1288 554 C-1286.13264991 543.04697176 -1280.9031163 532.87012124 -1272 526 C-1264.46656787 521.43133793 -1256.9530371 518.76406549 -1248.078125 518.69921875 C-1247.40694138 518.69361938 -1246.73575775 518.68802002 -1246.04423523 518.68225098 C-1243.77927548 518.67012208 -1241.51496288 518.67682546 -1239.25 518.6875 C-1238.03886032 518.69023422 -1238.03886032 518.69023422 -1236.80325317 518.69302368 C-1159.11442617 518.97965698 -1081.45426605 528.352345 -1004.21972656 535.96337891 C-971.45836495 539.19090894 -938.70065314 542.30741609 -905.875 544.8125 C-904.5745575 544.91186859 -903.27411499 545.01123718 -901.93426514 545.11361694 C-882.9651705 546.55264648 -863.98593325 547.80814181 -845 549 C-845.00523682 548.41549072 -845.01047363 547.83098145 -845.01586914 547.22875977 C-845.10126235 535.9946891 -845.06713275 524.78008211 -844.64826965 513.55252075 C-843.83526036 491.47452699 -843.8124968 469.39619174 -843.81469727 447.30566406 C-843.81477793 442.88407243 -843.80791211 438.46258575 -843.79418945 434.04101562 C-843.55505012 355.64433092 -848.19241991 277.35309635 -858.5703125 199.62890625 C-858.68551743 198.7653653 -858.80072235 197.90182434 -858.91941833 197.01211548 C-859.54832039 192.31714802 -860.19143873 187.62447071 -860.84667969 182.93310547 C-861.12447057 180.90203486 -861.40214275 178.87094801 -861.6796875 176.83984375 C-861.81166534 175.91820938 -861.94364319 174.99657501 -862.07962036 174.04701233 C-864.05062009 159.47731056 -863.14235518 145.67938892 -855 133 C-845.95135654 121.13465819 -834.93753049 114.21788248 -820.25 111.625 C-809.65253031 110.33346942 -799.33927789 111.69599501 -790 117 C-789.27554688 117.39832031 -788.55109375 117.79664063 -787.8046875 118.20703125 C-774.83497881 126.04760427 -768.04167165 137.31528236 -764.48382568 151.73649597 C-763.64779704 155.64772739 -763.25272982 159.59064137 -762.8515625 163.56640625 C-762.7542131 164.49249191 -762.65686371 165.41857758 -762.55656433 166.37272644 C-762.23823497 169.43524172 -761.93050165 172.49867977 -761.625 175.5625 C-761.51739349 176.6289978 -761.40978699 177.69549561 -761.29891968 178.79431152 C-759.56283657 196.09470979 -758.09436442 213.4103294 -756.8125 230.75 C-756.73404846 231.78722198 -756.65559692 232.82444397 -756.57476807 233.89309692 C-755.97322598 241.92440844 -755.46317618 249.95960248 -755 258 C-754.95659737 258.74292801 -754.91319473 259.48585602 -754.86847687 260.251297 C-753.03013014 291.96736028 -752.68351127 323.63576569 -752.73925781 355.39990234 C-752.75062741 361.92777964 -752.74387502 368.45549337 -752.73238468 374.98336506 C-752.66631289 419.19108918 -754.17279019 463.20539377 -757.0625 507.3125 C-757.19476813 509.38145907 -757.32593683 511.45048554 -757.45688725 513.51952839 C-758.76008435 534.09520877 -758.76008435 534.09520877 -759.49389648 543.71557617 C-759.56696518 544.68476486 -759.64003387 545.65395355 -759.71531677 546.6525116 C-760 549 -760 549 -761 551 C-759.92689575 550.99555878 -758.8537915 550.99111755 -757.74816895 550.98654175 C-706.54343591 550.7815449 -655.39367753 550.61595813 -604.22589111 552.81964111 C-600.54558444 552.97772033 -596.86502594 553.1289753 -593.18436527 553.27856064 C-502.41870854 556.96784913 -411.77663316 563.10873896 -311.16424561 569.50927734 C-259.1574398 572.82110194 -207.14442964 576.01779966 -155.125 579.125 C-154.29120725 579.17480861 -153.45741449 579.22461721 -152.59835529 579.27593517 C-131.73253305 580.52228174 -110.86643515 581.76395539 -90 583 C-89.89552048 581.81784912 -89.79104095 580.63569824 -89.68339539 579.41772461 C-85.83640695 536.09170523 -85.83640695 536.09170523 -82.8125 517 C-82.51008946 515.03812381 -82.20793482 513.07620817 -81.90600586 511.11425781 C-80.96718516 505.07121958 -79.99159829 499.0345839 -79 493 C-78.84442627 492.05278076 -78.68885254 491.10556152 -78.52856445 490.12963867 C-72.31862332 452.5168966 -64.86964088 415.12294381 -57.62039375 377.70052147 C-47.18430947 324.40796621 -47.18430947 324.40796621 -37.5625 270.96484375 C-37.40209229 270.02492081 -37.24168457 269.08499786 -37.07641602 268.11659241 C-33.99354742 249.68138011 -31.41824673 231.1771663 -29.125 212.62890625 C-28.99871719 211.6143379 -28.87243439 210.59976955 -28.74232483 209.55445671 C-26.78667757 193.82096515 -24.95938971 178.07504472 -23.21875 162.31640625 C-23.04994576 160.78874634 -23.04994576 160.78874634 -22.87773132 159.23022461 C-21.85143627 149.92982434 -20.83251472 140.62862595 -19.82275391 131.32641602 C-15.90310941 95.26515495 -11.39787722 59.34977502 -4.6875 23.6875 C-4.3372305 21.7885331 -3.9876254 19.88944354 -3.63867188 17.99023438 C-1.11922963 4.34846254 -1.11922963 4.34846254 0 0 Z M-738.875 617.5 C-740.14891602 617.53536865 -741.42283203 617.5707373 -742.73535156 617.60717773 C-750.84188873 617.86057633 -758.9145831 618.36609101 -767 619 C-768.36072582 626.76036533 -769.47896049 634.50528129 -770.33984375 642.3359375 C-770.59387928 644.57771439 -770.84863698 646.81940954 -771.10400391 649.06103516 C-771.23848938 650.24562317 -771.37297485 651.43021118 -771.51153564 652.6506958 C-780.76972548 733.59717605 -793.48013276 814.19118539 -843.234375 1075.59375 C-843.3980916 1076.3991925 -843.5618082 1077.20463501 -843.73048592 1078.03448486 C-844.20205521 1080.35322281 -844.6745043 1082.67177903 -845.14746094 1084.99023438 C-845.37142123 1086.08936913 -845.37142123 1086.08936913 -845.59990597 1087.21070862 C-846.42244578 1091.23156635 -847.26348338 1095.24789715 -848.12316895 1099.26098633 C-848.40156301 1100.5647308 -848.40156301 1100.5647308 -848.68558121 1101.89481354 C-849.04414961 1103.56975159 -849.40532213 1105.2441349 -849.7694664 1106.91786957 C-850.42917314 1110.00062726 -851 1112.83752017 -851 1116 C-850.37923584 1116.07927734 -849.75847168 1116.15855469 -849.11889648 1116.24023438 C-779.54577477 1125.19109002 -711.13286643 1136.75316212 -642.97889709 1153.33772278 C-557.77194953 1174.04910779 -472.06989022 1192.25463669 -386 1209 C-385.19634758 1209.15650276 -384.39269516 1209.31300552 -383.56468964 1209.47425079 C-337.21524717 1218.49662302 -290.6406336 1226.20276664 -244.05650139 1233.90176773 C-242.04651331 1234.2339667 -240.03658847 1234.56654857 -238.02673531 1234.89956284 C-228.02578279 1236.55527345 -218.02006338 1238.18021328 -208.0012207 1239.72436523 C-206.77252526 1239.91833311 -206.77252526 1239.91833311 -205.51900768 1240.11621952 C-201.30107407 1240.75635217 -197.28198252 1241.14006197 -193 1241 C-188.64065011 1222.59350852 -184.66241467 1204.12051758 -180.87712479 1185.58882141 C-180.42775923 1183.38983314 -179.97742346 1181.1910455 -179.52682495 1178.99230957 C-177.4915049 1169.05928827 -175.46616901 1159.12425562 -173.44529724 1149.18828583 C-173.01416754 1147.06962231 -172.58246533 1144.95107644 -172.1505127 1142.83258057 C-155.81019613 1062.68757738 -140.88243851 982.25098864 -112 800 C-111.82124329 798.74245911 -111.64248657 797.48491821 -111.45831299 796.18927002 C-103.57282196 740.61053964 -96.66610089 684.95317742 -92 629 C-103.72179005 628.00052693 -115.42723818 627.67725947 -127.18359375 627.39916992 C-129.30276408 627.34660963 -131.4219271 627.29375365 -133.54108334 627.24062824 C-138.10493502 627.12682986 -142.66883027 627.01506417 -147.23277092 626.90489197 C-154.56709373 626.72780472 -161.90129609 626.5460292 -169.23548889 626.36364746 C-179.71742524 626.10340898 -190.19940841 625.8451276 -200.681427 625.58822632 C-226.5165047 624.95489051 -252.35130812 624.31050122 -278.18606114 623.66407228 C-280.89640543 623.59625593 -283.6067509 623.52848674 -286.31709743 623.46075988 C-338.08840118 622.16699226 -389.85618872 620.77228966 -441.62167084 619.26411438 C-483.55641375 618.04247676 -525.48814596 616.987998 -567.4375 616.4375 C-568.21648903 616.42715981 -568.99547806 616.41681961 -569.79807281 616.40616608 C-626.17087559 615.65986057 -682.51591867 615.90473027 -738.875 617.5 Z "
        fill="currentColor"
        transform="translate(1489,119)" />
  <path d="M0 0 C0.74024414 0.13921875 1.48048828 0.2784375 2.24316406 0.421875 C40.74755179 7.90450905 72.96608133 28.25590573 96.8828125 59.34765625 C98.78005673 61.72446221 100.75232865 63.96594729 102.7890625 66.22265625 C119.31282042 84.70934962 132.50373619 106.10780772 144 128 C144.3501416 128.66080566 144.7002832 129.32161133 145.06103516 130.00244141 C162.70437118 163.77875615 173.28942377 207.26479598 162.69335938 244.79931641 C160.69493273 251.14220999 158.02797212 257.09004142 155 263 C154.47664063 264.05574219 153.95328125 265.11148437 153.4140625 266.19921875 C148.88252998 274.65439529 142.73808292 281.27812553 136 288 C135.27039062 288.74121094 134.54078125 289.48242188 133.7890625 290.24609375 C101.72546574 320.77407764 51.31805553 326.48842354 9.1875 326.3125 C8.27312164 326.31067719 7.35874329 326.30885437 6.41665649 326.30697632 C-7.56902555 326.26018311 -21.24949327 325.7717344 -35 323 C-35.86705566 322.82839355 -36.73411133 322.65678711 -37.62744141 322.47998047 C-68.92463526 316.08334852 -99.9390955 303.63552922 -126 285 C-126.98355469 284.30261719 -127.96710937 283.60523438 -128.98046875 282.88671875 C-135.49606684 278.14120552 -141.45535058 273.00367723 -147.31640625 267.4921875 C-149.41170263 265.5463373 -151.52315712 263.72503374 -153.75 261.9375 C-166.85623276 250.72158927 -176.69665615 233.23472608 -182 217 C-182.33773437 216.00484375 -182.67546875 215.0096875 -183.0234375 213.984375 C-187.07956254 199.76933129 -187.47442339 180.1369713 -180.86328125 166.6875 C-178.44212744 162.53258621 -175.53870437 159.23538685 -172 156 C-171.34 156.33 -170.68 156.66 -170 157 C-170.20496094 157.845625 -170.40992188 158.69125 -170.62109375 159.5625 C-176.2169335 183.12393053 -173.86121004 203.99959838 -161.70703125 225.26171875 C-149.84353368 244.29218052 -133.10763544 258.56674273 -114 270 C-112.39898438 270.97066406 -112.39898438 270.97066406 -110.765625 271.9609375 C-79.32604168 290.69320141 -42.26911473 300.24547842 -5.8125 300.1875 C-4.75811737 300.18659363 -4.75811737 300.18659363 -3.68243408 300.18566895 C36.74492231 300.09184608 82.80702089 294.58811142 113 265 C114.04994141 264.00419922 114.04994141 264.00419922 115.12109375 262.98828125 C127.81556232 249.99686605 132.81754613 231.83680628 133.25 214.125 C132.77029298 173.54978107 110.57086747 136.81658093 86 106 C85.20851563 104.99453125 84.41703125 103.9890625 83.6015625 102.953125 C78.64338275 96.75987521 73.3383906 90.93403266 67.921875 85.14453125 C65.31098405 82.35067369 62.77646481 79.49558674 60.25 76.625 C56.99433762 72.99323222 53.61261451 69.70593091 49.875 66.57421875 C48.70102456 65.58856854 47.55022609 64.57383922 46.4375 63.51953125 C25.56193328 44.05306528 -7.9073172 38.35833224 -35.34423828 39.07250977 C-62.6389864 40.20120392 -96.31052271 45.72802693 -116.25390625 66.328125 C-121.81643547 73.15644897 -123.91302619 78.69161818 -124.8125 87.375 C-125.82701536 95.85165311 -128.3978718 100.87815556 -134.8125 106.4375 C-142.414791 110.16411324 -148.91398565 110.6769399 -157 108 C-163.32794598 104.6569342 -167.75183833 99.85439514 -170 93 C-172.10024827 73.17038323 -164.19783973 54.24729967 -152 39 C-145.83769252 31.89052304 -139.00564584 25.92485248 -131 21 C-130.15574463 20.47841309 -130.15574463 20.47841309 -129.29443359 19.94628906 C-91.27461605 -3.2539489 -43.30055587 -8.36795415 0 0 Z "
        fill="currentColor"
        transform="translate(1021,846)" />
  <path d="M0 0 C0.77397629 -0.00705963 1.54795258 -0.01411926 2.34538269 -0.02139282 C34.9451135 -0.2511739 34.9451135 -0.2511739 50.546875 3.203125 C51.46388184 3.40180176 52.38088867 3.60047852 53.32568359 3.80517578 C76.88607595 9.06401607 100.23393121 18.06504029 118.546875 34.203125 C119.30613281 34.8425 120.06539062 35.481875 120.84765625 36.140625 C132.57378361 46.27384144 142.95256897 58.06716948 152.546875 70.203125 C153.47495728 71.34115472 154.40475216 72.47778919 155.3359375 73.61328125 C190.16197667 116.24741522 220.45755123 171.62200668 215.03320312 228.46142578 C212.4751975 252.04898589 203.02560371 272.26749993 186.546875 289.203125 C185.96292969 289.83734375 185.37898438 290.4715625 184.77734375 291.125 C158.93558603 318.4797412 114.37808542 327.2800028 78.47265625 329.11328125 C11.55827517 330.64465515 -51.85210375 315.00855092 -101.69921875 267.8984375 C-121.85982161 248.16678364 -136.32187929 224.17905778 -136.765625 195.390625 C-136.70574624 182.57810614 -134.7521158 170.79931872 -125.765625 161.203125 C-123.453125 159.203125 -123.453125 159.203125 -121.453125 159.203125 C-121.58589844 159.85539062 -121.71867187 160.50765625 -121.85546875 161.1796875 C-122.03207031 162.05367187 -122.20867187 162.92765625 -122.390625 163.828125 C-122.56464844 164.68664063 -122.73867187 165.54515625 -122.91796875 166.4296875 C-123.09457031 167.34492187 -123.27117187 168.26015625 -123.453125 169.203125 C-123.63359375 170.1003125 -123.8140625 170.9975 -124 171.921875 C-127.20232404 195.11111806 -121.42142524 216.05119972 -108.08984375 235.1171875 C-105.42666371 238.51131194 -102.54085333 241.68787985 -99.6015625 244.84375 C-97.453125 247.203125 -97.453125 247.203125 -95.4765625 249.7421875 C-69.04592307 281.88755978 -16.74758364 298.43972132 22.984375 302.453125 C49.90668985 304.83672938 77.12605909 302.72843055 103.546875 297.203125 C104.248125 297.05649414 104.949375 296.90986328 105.671875 296.75878906 C121.94314155 293.20765075 137.88483311 286.73748615 151.546875 277.203125 C152.36285156 276.65140625 153.17882813 276.0996875 154.01953125 275.53125 C168.71835609 264.94204514 177.28157138 248.78404055 181.16796875 231.4296875 C186.44504439 186.49294026 163.60755186 145.29223135 136.83544922 111.01171875 C129.13945152 101.29777528 120.99604083 92.03657238 112.39160156 83.11962891 C111.12141619 81.80002128 109.85811784 80.47376123 108.60058594 79.14208984 C84.80867203 53.97287169 56.05415532 43.3569773 21.73828125 41.98046875 C-8.74833085 41.20163582 -42.77074055 47.75707926 -66.453125 68.203125 C-72.0002274 74.93968623 -75.24694147 80.773656 -75.828125 89.515625 C-76.42482037 96.83508821 -78.34348517 102.63732241 -83.890625 107.640625 C-89.26828519 112.02011161 -94.54092763 112.711555 -101.3125 112.578125 C-107.0966479 111.88748048 -111.95731054 109.67544945 -116.11328125 105.55859375 C-121.51340779 98.58408629 -121.77619727 91.55466618 -120.98828125 83.0234375 C-117.86108481 60.69936365 -106.31205081 41.7981302 -88.390625 28.265625 C-62.7808985 10.17788101 -31.38019034 0.19231536 0 0 Z "
        fill="currentColor"
        transform="translate(1565.453125,1551.796875)" />
  <path d="M0 0 C0.74636719 0.52207031 1.49273437 1.04414063 2.26171875 1.58203125 C14.42783939 10.73244117 25.16542623 22.43399738 35 34 C35.81488892 34.95471191 35.81488892 34.95471191 36.64624023 35.92871094 C51.57860817 53.5484169 64.36838848 72.0471086 76 92 C76.40589355 92.69158203 76.81178711 93.38316406 77.22998047 94.09570312 C98.08847406 130.01499222 110.44233896 174.73255397 101 216 C93.62312619 243.3892705 76.07228439 264.37330634 51.6875 278.53515625 C3.17630743 305.80664642 -64.58765313 307.30512591 -117.296875 292.84375 C-121.24664746 291.70207605 -125.12729389 290.37811287 -129 289 C-129.77843262 288.72849121 -130.55686523 288.45698242 -131.35888672 288.17724609 C-160.99545182 277.74540559 -188.14610153 262.68366873 -211 241 C-211.5053125 240.52723633 -212.010625 240.05447266 -212.53125 239.56738281 C-231.9955773 221.26108941 -246.25749204 198.11997861 -248.22265625 170.91796875 C-248.55971655 159.03292935 -247.4272909 144.1891465 -239.1875 134.97265625 C-237.50249627 133.25707785 -235.78798322 131.60717593 -234 130 C-232.63763757 133.74424112 -233.42283973 136.2789446 -234.4375 140.0625 C-239.15673652 161.10242951 -234.96685855 182.29604235 -223.6875 200.625 C-197.91165281 239.31648676 -152.83112298 261.79928051 -108.30078125 271 C-104.54460399 271.73671112 -100.78036467 272.39808627 -97 273 C-95.98341309 273.17200928 -94.96682617 273.34401855 -93.91943359 273.52124023 C-89.21824299 274.09549181 -84.61030664 274.18041415 -79.87890625 274.203125 C-78.91008514 274.21013931 -77.94126404 274.21715363 -76.94308472 274.22438049 C-73.81617587 274.24187013 -70.68945602 274.24823675 -67.5625 274.25 C-66.49855011 274.25067474 -65.43460022 274.25134949 -64.33840942 274.25204468 C-49.01672223 274.23655872 -34.08278014 273.95260688 -19 271 C-18.08154297 270.82839355 -17.16308594 270.65678711 -16.21679688 270.47998047 C6.49207658 266.13766512 29.54963207 258.76550482 47 243 C47.76828125 242.32453125 48.5365625 241.6490625 49.328125 240.953125 C60.92700696 230.14328263 69.11516371 214.3408903 70.17700195 198.33129883 C70.48233475 184.00985234 70.22232608 170.74862352 66 157 C65.69449219 155.97616211 65.69449219 155.97616211 65.3828125 154.93164062 C57.02708186 127.56920172 41.797437 103.15955391 24 81 C23.19820313 79.98550781 22.39640625 78.97101563 21.5703125 77.92578125 C16.46690426 71.56014215 11.01715044 65.54239979 5.45898438 59.57666016 C3.95499819 57.95136853 2.46817273 56.31169963 0.984375 54.66796875 C-17.63885128 34.0936809 -37.71135383 21.50754623 -65 16 C-66.65902344 15.66162109 -66.65902344 15.66162109 -68.3515625 15.31640625 C-102.39701589 9.64216402 -141.69828995 14.83467344 -170.96875 33.9375 C-178.28645818 39.40373985 -184.87979497 46.53081359 -186.69140625 55.73828125 C-186.93502759 57.52380982 -187.14380622 59.31409136 -187.33984375 61.10546875 C-188.23072338 68.47855824 -189.25077929 73.9634926 -195 79 C-201.27358777 83.4131445 -207.38217014 85.28786278 -215 84 C-222.66312154 81.89542704 -227.05976269 77.85869002 -231.1015625 71.1796875 C-235.65194331 61.08971265 -231.82068105 46.49618907 -228.1171875 36.65625 C-227.74851563 35.7796875 -227.37984375 34.903125 -227 34 C-226.65195313 33.1646875 -226.30390625 32.329375 -225.9453125 31.46875 C-214.78625538 7.14970137 -191.41308921 -8.77854624 -167.02734375 -17.90625 C-113.53437072 -37.03052534 -47.32025874 -33.16144117 0 0 Z "
        fill="currentColor"
        transform="translate(437,309)" />
  <path d="M0 0 C6.86250264 5.6719539 10.23442078 14.52496403 13.76171875 22.47265625 C14.8070695 24.7812298 15.8553985 27.08845641 16.90625 29.39453125 C17.18156052 29.99928284 17.45687103 30.60403442 17.74052429 31.22711182 C21.19274951 38.78178253 24.81704364 46.25325697 28.44921875 53.72265625 C28.79146484 54.42658508 29.13371094 55.13051392 29.48632812 55.85577393 C37.69125719 72.71688377 46.00930484 89.50785562 54.796875 106.07421875 C56.63408738 109.53956437 58.45179171 113.01438978 60.2578125 116.49609375 C65.88460168 127.34112029 71.58840404 138.12877876 77.55419922 148.79223633 C79.94452624 153.11020706 82.05084799 157.18709572 83.38671875 161.97265625 C92.11001905 155.8552571 100.33570929 149.21252062 108.56835938 142.45898438 C110.93051025 140.52816073 113.3124593 138.62294243 115.69921875 136.72265625 C120.03165905 133.26684685 124.32502803 129.76520754 128.609375 126.25 C130.42693219 124.75965423 132.24714623 123.27254131 134.0703125 121.7890625 C139.61477012 117.27463474 145.0974196 112.69526339 150.54370117 108.06347656 C154.0187599 105.11331532 157.53107049 102.2161571 161.07421875 99.34765625 C165.46898516 95.77333104 169.67375358 92.03407947 173.859375 88.21875 C176.45634268 85.91078027 179.12075888 83.71709762 181.82421875 81.53515625 C186.65620803 77.62452086 191.26064829 73.5150124 195.8359375 69.30859375 C197.99490627 67.33146767 200.17569602 65.3909774 202.38671875 63.47265625 C205.59571119 60.68451527 208.74588319 57.8373744 211.88671875 54.97265625 C213.71982419 53.30573894 215.55314141 51.63905448 217.38671875 49.97265625 C218.07765625 49.34101563 218.76859375 48.709375 219.48046875 48.05859375 C228.67545992 39.80571233 235.91798105 33.53074563 248.5703125 33.69921875 C255.50033068 34.37203605 259.82347069 37.87276823 264.16015625 43.09375 C268.50780536 49.75368383 268.45128348 57.57446519 266.9453125 65.2109375 C264.06662252 72.49055668 256.37509953 77.30406107 250.38671875 81.97265625 C249.360625 82.77574219 248.33453125 83.57882812 247.27734375 84.40625 C245.17663389 86.02976815 243.07160232 87.64485117 240.95703125 89.25 C237.57374749 91.82056642 234.22429037 94.43312671 230.8762207 97.04931641 C222.5031611 103.59040846 214.05461505 110.0183954 205.53515625 116.3671875 C203.21019773 118.1045656 200.89171497 119.85033767 198.57421875 121.59765625 C189.81396283 128.19828052 181.01521301 134.7333839 172.10375977 141.12866211 C167.4838758 144.44668478 162.89953078 147.80790295 158.33447266 151.20092773 C149.77384628 157.55962431 141.07993234 163.67258097 132.25390625 169.65625 C126.14164393 173.80483868 120.1006143 178.05439191 114.05883789 182.3046875 C109.86894587 185.24900567 105.66351866 188.15589109 101.38671875 190.97265625 C101.99033973 195.44982043 103.79025039 199.00348462 105.9296875 202.9140625 C106.28997543 203.5859108 106.65026337 204.25775909 107.02146912 204.94996643 C107.79686781 206.39523888 108.57497918 207.83905861 109.35552979 209.28155518 C111.42406024 213.10668414 113.47010428 216.94377971 115.515625 220.78125 C115.92911194 221.55633911 116.34259888 222.33142822 116.76861572 223.13000488 C122.30013514 233.52853152 127.5207974 244.07896913 132.7355957 254.63916016 C134.57338417 258.34952001 136.42660807 262.05195353 138.28125 265.75390625 C159.7959496 308.74534648 179.82488045 352.22849136 194.82421875 397.97265625 C195.19009094 399.07577148 195.19009094 399.07577148 195.56335449 400.20117188 C196.24465006 402.26710358 196.91041692 404.33730345 197.5703125 406.41015625 C197.94728271 407.58449219 198.32425293 408.75882813 198.71264648 409.96875 C199.38563194 412.96781304 199.23621088 414.13293431 198.38671875 416.97265625 C194.47220065 411.19953244 190.56248656 405.42317572 186.65576172 399.64477539 C185.33226518 397.68833704 184.0077568 395.73258272 182.68212891 393.77758789 C174.4363728 381.61525392 166.38608599 369.36181415 158.59802246 356.90151978 C156.07968732 352.89135721 153.48364238 348.93214689 150.88671875 344.97265625 C144.61988891 335.36816065 138.47761829 325.68948424 132.38671875 315.97265625 C131.80132324 315.03905273 131.21592773 314.10544922 130.61279297 313.14355469 C126.19414282 306.09278944 121.78681858 299.03501127 117.38671875 291.97265625 C116.83902832 291.09383789 116.29133789 290.21501953 115.72705078 289.30957031 C109.13114562 278.71633143 102.61044155 268.0784401 96.13671875 257.41015625 C95.78417023 256.82925232 95.4316217 256.24834839 95.06838989 255.64984131 C91.30382976 249.44553702 87.5452701 243.23765191 83.7963562 237.02388 C82.22703335 234.42362749 80.65557947 231.8246664 79.0838623 229.2258606 C78.33171448 227.98081116 77.58064347 226.73511053 76.83068848 225.48873901 C75.79074484 223.76047035 74.74702448 222.03447591 73.703125 220.30859375 C73.10959229 219.3242334 72.51605957 218.33987305 71.90454102 217.32568359 C70.46118274 214.90651083 70.46118274 214.90651083 68.38671875 212.97265625 C67.4121875 213.64167969 66.43765625 214.31070313 65.43359375 215 C53.00010473 223.45051202 40.20318765 231.2490857 27.3241272 238.99203491 C23.98921641 240.99905162 20.66826969 243.02614005 17.36328125 245.08203125 C6.81419935 251.64353937 -3.97134198 257.6785551 -14.92773438 263.53369141 C-17.48045289 264.9014844 -20.02410567 266.28484073 -22.56640625 267.671875 C-33.30546254 273.48570592 -44.23972518 278.52556475 -55.61328125 282.97265625 C-56.42748535 283.30845703 -57.24168945 283.64425781 -58.08056641 283.99023438 C-65.23774288 286.8079995 -72.39838968 288.22971118 -79.98583984 289.41064453 C-82.0082176 289.72576265 -84.0274915 290.056903 -86.046875 290.390625 C-96.72971982 292.11228468 -96.72971982 292.11228468 -101.61328125 291.97265625 C-98.3957609 289.32646122 -95.15214598 286.95375629 -91.61328125 284.7578125 C-90.65591064 284.16178223 -89.69854004 283.56575195 -88.7121582 282.95166016 C-87.68952881 282.31921387 -86.66689941 281.68676758 -85.61328125 281.03515625 C-84.5358667 280.36403809 -83.45845215 279.69291992 -82.34838867 279.00146484 C-77.46981751 275.96595733 -72.58339631 272.94559789 -67.6640625 269.9765625 C-55.85090076 262.81925534 -44.37192412 255.19828374 -32.92578125 247.47265625 C-31.76618393 246.69151459 -31.76618393 246.69151459 -30.5831604 245.89459229 C-21.19564542 239.56330074 -11.9318177 233.08815824 -2.77279663 226.43041992 C2.40015517 222.67213965 7.63287348 219.0255885 12.94921875 215.47265625 C21.36842827 209.77769422 29.44188208 203.70168437 37.46484375 197.46533203 C40.40598766 195.18101371 43.35921487 192.91339526 46.32421875 190.66015625 C47.26136719 189.94214844 48.19851563 189.22414063 49.1640625 188.484375 C51.38671875 186.97265625 51.38671875 186.97265625 53.38671875 186.97265625 C48.30314861 177.82760944 43.11053303 168.75207968 37.82421875 159.72265625 C15.01130672 120.71282505 -7.04286261 81.21551855 -27.61328125 40.97265625 C-28.25281738 39.73588135 -28.25281738 39.73588135 -28.90527344 38.47412109 C-30.07841221 36.19157076 -31.22519778 33.89784537 -32.36328125 31.59765625 C-32.6989209 30.95046631 -33.03456055 30.30327637 -33.38037109 29.63647461 C-36.38927919 23.40188063 -36.51501297 17.30272198 -34.42578125 10.72265625 C-31.86037768 4.6807712 -27.10063842 1.3127867 -21.61328125 -2.02734375 C-14.0273996 -4.55597097 -7.08614481 -3.35659491 0 0 Z "
        fill="currentColor"
        transform="translate(964.61328125,245.02734375)" />
  <path d="M0 0 C6.19266338 4.45202286 9.36502654 10.41579675 12.23046875 17.30859375 C12.99784224 19.08092911 13.76888851 20.85167732 14.54296875 22.62109375 C14.95804688 23.57113281 15.373125 24.52117187 15.80078125 25.5 C18.32953426 31.15718174 21.0338299 36.72998811 23.73046875 42.30859375 C24.24810791 43.38334961 24.76574707 44.45810547 25.29907227 45.56542969 C28.82689328 52.86284697 32.43527577 60.11784128 36.06811523 67.36328125 C37.84713131 70.913102 39.61395196 74.46883782 41.37678528 78.02671814 C52.24883234 100.00776078 52.24883234 100.00776078 63.81347656 121.62915039 C66.58324264 126.61617695 69.26569776 131.64002403 71.87109375 136.71484375 C72.34521698 137.63728127 72.34521698 137.63728127 72.82891846 138.57835388 C74.37756885 141.59513495 75.91831539 144.61551121 77.45019531 147.64086914 C78.00674805 148.72875732 78.56330078 149.81664551 79.13671875 150.9375 C79.62591797 151.90244385 80.11511719 152.8673877 80.61914062 153.86157227 C82.23483693 156.67503335 84.08006853 159.08076071 86.16796875 161.55859375 C87.01617188 160.89214844 87.864375 160.22570313 88.73828125 159.5390625 C89.29781494 159.09949219 89.85734863 158.65992188 90.43383789 158.20703125 C91.69108426 157.21906509 92.94807611 156.23077498 94.20483398 155.2421875 C97.38342972 152.7425496 100.5650332 150.24712844 103.7578125 147.765625 C110.14244676 142.79423284 116.40937079 137.72022315 122.5637207 132.46606445 C126.42291526 129.1742085 130.35187559 125.98930731 134.32421875 122.8359375 C145.21691223 114.11280522 155.90510148 105.14671737 166.46630859 96.02636719 C168.77701718 94.03325671 171.0942187 92.0477789 173.41186523 90.06274414 C174.57975837 89.06241193 175.74724105 88.0616003 176.91430664 87.06030273 C179.85018762 84.54154594 182.79021493 82.0279253 185.73828125 79.5234375 C192.44819466 73.81422194 199.02770012 67.99692767 205.49609375 62.015625 C208.35062268 59.3906269 211.25319772 56.83187017 214.1875 54.296875 C215.63980479 53.02216961 217.07199912 51.72445481 218.4921875 50.4140625 C236.17652711 34.11781862 236.17652711 34.11781862 249.09765625 34.2890625 C255.60322745 34.86016226 259.59550992 37.66935538 264.04296875 42.30859375 C268.31983082 47.59120192 269.48098265 52.33853831 269.04296875 59.05859375 C266.50836782 74.85940382 250.23207037 83.38258515 238.34375 92.3828125 C234.66699699 95.16944829 231.03466116 98.00718489 227.41796875 100.87109375 C213.72254044 111.6791611 199.80896487 122.18454922 185.62890625 132.34765625 C180.94378379 135.7089472 176.30438224 139.13057206 171.66796875 142.55859375 C148.851416 159.40103793 125.60548214 175.59336955 102.16796875 191.55859375 C103.55465624 196.09461217 105.3946912 200.22469531 107.58984375 204.4140625 C107.9262941 205.06462616 108.26274445 205.71518982 108.60939026 206.38546753 C109.70821489 208.50779611 110.81309233 210.6269104 111.91796875 212.74609375 C112.68815924 214.23147429 113.45792969 215.7170727 114.22729492 217.20288086 C116.53549985 221.65757627 118.85108067 226.10840985 121.16796875 230.55859375 C133.65313273 254.55193302 145.91418286 278.58432527 157.21484375 303.16015625 C159.18888436 307.45301001 161.19800895 311.72453251 163.25610352 315.97753906 C178.83124167 348.32044978 190.92585628 382.19820593 201.16796875 416.55859375 C200.50796875 416.88859375 199.84796875 417.21859375 199.16796875 417.55859375 C167.51537277 369.585377 167.51537277 369.585377 156.62792969 352.80664062 C155.20968409 350.622827 153.78698128 348.4419792 152.36328125 346.26171875 C145.12539042 335.15633213 138.10964543 323.91490726 131.10302734 312.66259766 C129.21854012 309.63971467 127.32907607 306.62001375 125.4375 303.6015625 C112.17366487 282.43292923 99.10755458 261.14581268 86.15763855 239.78405762 C80.84990274 231.02864927 75.51529485 222.28986488 70.16796875 213.55859375 C69.51602539 213.97616943 68.86408203 214.39374512 68.19238281 214.82397461 C61.14305876 219.32618449 54.04572131 223.74429889 46.91796875 228.12109375 C46.08091904 228.63524841 46.08091904 228.63524841 45.22695923 229.15979004 C42.33187037 230.93793335 39.43607588 232.71491992 36.53955078 234.49072266 C34.3809072 235.81466988 32.22296284 237.13975825 30.06591797 238.46630859 C-25.54240605 272.65933669 -25.54240605 272.65933669 -54.83203125 283.55859375 C-55.71681152 283.88931885 -56.6015918 284.22004395 -57.51318359 284.56079102 C-65.49171705 287.38971334 -73.49330212 288.9898058 -81.83203125 290.37109375 C-83.77529297 290.71430664 -83.77529297 290.71430664 -85.7578125 291.06445312 C-96.1481977 292.82855279 -96.1481977 292.82855279 -99.83203125 291.55859375 C-93.65584664 286.94270841 -87.20628738 282.92703463 -80.58203125 278.99609375 C-51.83345451 261.88104718 -23.96543615 243.13068454 3.16796875 223.55859375 C4.25537354 222.77548828 4.25537354 222.77548828 5.36474609 221.9765625 C9.21191564 219.20458798 13.05495037 216.42700573 16.89453125 213.64453125 C19.52561753 211.74007013 22.16373822 209.84693521 24.81640625 207.97265625 C32.24538176 202.72101232 39.50511139 197.2932757 46.66040039 191.671875 C47.3486792 191.13691406 48.03695801 190.60195312 48.74609375 190.05078125 C49.3587207 189.5697998 49.97134766 189.08881836 50.60253906 188.59326172 C52.16796875 187.55859375 52.16796875 187.55859375 54.16796875 187.55859375 C51.21586817 181.25385633 47.8537058 175.28550975 44.23388672 169.34204102 C38.32496115 159.58629395 32.7493878 149.6327326 27.10905457 139.7202301 C25.09161414 136.17574284 23.06605103 132.63610935 21.03125 129.1015625 C12.88617121 114.94486881 4.97917232 100.65992333 -2.86071777 86.3326416 C-3.79030832 84.63479827 -4.72177056 82.93798011 -5.65332031 81.24121094 C-9.77923229 73.71504989 -13.83979878 66.15650074 -17.83203125 58.55859375 C-18.17848694 57.90022522 -18.52494263 57.24185669 -18.88189697 56.5635376 C-21.13122611 52.28174093 -23.35626606 47.98834894 -25.55639648 43.68106079 C-26.27228926 42.28467233 -26.99350766 40.89099919 -27.72045898 39.50033569 C-32.45491347 30.42398685 -36.43621576 22.27633428 -33.83203125 11.87109375 C-31.4298976 5.70197779 -27.17136372 1.9531958 -21.58203125 -1.37890625 C-13.96216079 -3.53786955 -7.25180018 -3.15600588 0 0 Z "
        fill="currentColor"
        transform="translate(789.83203125,1388.44140625)" />
</svg>